<svg xmlns="http://www.w3.org/2000/svg" viewBox="0 0 100 171.49">
  <g data-name="Layer 2">
    <path fill="#b2e522" fill-rule="evenodd" d="M94.24 47.24a6.1 6.1 0 00-3.58.17L85.89 49V4.21A4.21 4.21 0 0081.7 0H18.32a4.22 4.22 0 00-4.21 4.21V49l-4.77-1.59a6.44 6.44 0 00-3.58-.17C4 47.68 0 49.42 0 56.36V93a6.49 6.49 0 00.05.77c.48 3.15 2.73 6.88 7.5 6.88h16c1.67 1.89 5.62 5.15 13 5.76a13.42 13.42 0 008.2 12.1V129a.36.36 0 01-.33.36c-22.37.9-36.72 8-40.81 10.33-2.54 1.46-3 4.36-3 6.35v8.2A5.3 5.3 0 006 159.37a5.33 5.33 0 001.09-10.51.38.38 0 01-.27-.34v-3a2.13 2.13 0 011.12-1.86c6.07-3.34 21.54-5 33.25-5.64 1.48-.07 2.88 0 3.46 0a.33.33 0 01.32.34c.6 9.49 1.55 17.48 1.86 22.46h-.44c-2 0-3.8 2.32-3.8 5.3s1.77 5.32 3.8 5.32h7.17c2 0 3.8-2.35 3.8-5.32s-1.77-5.3-3.8-5.3h-.44s1.26-13 1.87-22.46a.36.36 0 01.31-.34 34.25 34.25 0 013.46 0c11.69.58 27.18 2.27 33.25 5.64a2 2 0 011.12 1.86v3a.36.36 0 01-.27.34 5.33 5.33 0 00-4.07 5.47 5.41 5.41 0 005.16 5 5.3 5.3 0 005.44-5.11v-8.2c0-2-.48-4.89-3-6.35-4.11-2.34-18.44-9.43-40.8-10.33a.35.35 0 01-.34-.36v-10.42a13.48 13.48 0 008.2-12.1c7.33-.61 11.28-3.87 12.95-5.76h16.07c4.77 0 7-3.73 7.48-6.9a6.78 6.78 0 000-.77V56.34c0-7-4-8.69-5.76-9.1zM14.13 86l-7.38 5.6a.27.27 0 01-.43-.22v-35c0-1.33.21-3.27 1-3l6.49 2.2a.52.52 0 01.36.51V86zm79.17 5.58L85.91 86V56a.55.55 0 01.37-.51l6.48-2.2c.85-.25 1 1.67 1 3v35c0 .26-.26.38-.43.24z" data-name="Layer 1"/>
  </g>
</svg>